<?xml version="1.0" encoding="UTF-8"?><svg id="b" xmlns="http://www.w3.org/2000/svg" width="378.286" height="418.573" viewBox="0 0 378.286 418.573"><defs><style>.f{fill:#211715;}.g{fill:#6dbf6b;}.h{fill:#fff;}.i{fill:#ffe176;}.j{fill:#5394cf;}.k{fill:#645d5c;}</style></defs><g id="c"><g id="d"><path class="h" d="M117.937,171.775c9.302,1.097,17.183,2.862,27.261,5.718,1.324,1.934,6.768,5.076,10.514,5.35,4.744.347,11.075-.092,18.578-1.804,4.12-.94,8.362-1.63,12.119-3.564,3.121-1.606,6.085-3.73,7.584-6.754,1.611-3.097.989-7.057.334-9.818-1.709-7.206-4.152-14.776-6.246-18.793-.917-1.759-2.024-3.358-3.629-4.377-1.48-.939-3.483-1.496-5.432-1.509-11.332-.079-17.587.741-25.995,3.732-2.729.971-4.921,3.054-6.118,5.394-1.271,2.486-1.887,10.615-1.887,14.319l-1.398,6.244c-5.476-.421-10.104-.844-15.58-1.265l-4.923-.379c-.015-1.018-.73-2.06-1.677-2.543-1.264-.644-2.77-.542-4.171-.325-5.03.778-9.853,2.86-13.869,5.986-1.467,1.142-2.957,2.787-2.58,4.607.25,1.204,1.307,2.118,2.472,2.511s2.43.346,3.654.225c3.723-.367,7.382-1.384,10.76-2.992"/><path class="h" d="M152.484,280.469c.041.167.275.166.314-.001.616-2.598,1.894-6.879,3.848-8.725,1.858-1.755,5.078-3.133,7.884-3.543.186-.027.177-.294-.009-.321-3.479-.503-6.361-1.547-8.546-4.273-2.002-2.499-2.664-5.085-2.983-8.104-.02-.185-.276-.207-.318-.025-.628,2.714-2.129,6.629-3.451,8.308-1.984,2.52-4.597,3.292-8.714,4.076-.189.036-.178.306.013.323,3.707.328,6.216,1.774,8.521,3.873,2.022,1.841,3.001,6.632,3.439,8.413Z"/><path class="h" d="M10.408,363.15c.029.116.191.116.219,0,.429-1.808,1.318-4.788,2.678-6.073,1.293-1.221,3.534-2.181,5.488-2.466.13-.019.123-.205-.006-.224-2.422-.35-4.428-1.077-5.948-2.974-1.393-1.739-1.854-3.54-2.076-5.641-.014-.129-.192-.144-.221-.018-.437,1.889-1.482,4.614-2.402,5.783-1.381,1.754-3.2,2.291-6.065,2.837-.131.025-.124.213.009.225,2.58.229,4.327,1.235,5.931,2.696,1.407,1.281,2.089,4.616,2.394,5.856Z"/><path class="h" d="M25.374,227.132c.041.167.275.166.314-.001.616-2.597,1.893-6.876,3.846-8.721,1.857-1.754,5.075-3.132,7.88-3.542.186-.027.177-.294-.009-.321-3.477-.503-6.359-1.546-8.542-4.271-2.001-2.498-2.663-5.083-2.982-8.101-.02-.185-.275-.207-.317-.025-.628,2.713-2.128,6.626-3.45,8.305-1.983,2.519-4.595,3.29-8.71,4.075-.189.036-.178.306.013.323,3.705.328,6.213,1.773,8.517,3.871,2.021,1.84,3,6.629,3.438,8.409Z"/><path class="h" d="M124.838,311.938c3.99.515,11.03,2.765,13.45,4.505,2.572,1.849,3.556,4.191,4.046,7.101-.014.41-.029.82-.045,1.229-1.017,24.211-5.383,48.25-13.012,71.826-2.197,6.79-5.378,14.242-13.704,17.69-4.274,1.77-9.25,2.181-14.225,2.26-1.436.023-2.871.018-4.29.009-4.298-.025-21.487-.025-25.784,0-6.335.036-13.007.012-18.515-2.269-8.326-3.448-11.507-10.9-13.704-17.69-1.026-3.172-1.993-6.354-2.901-9.545-5.941-20.879-9.345-42.141-10.153-63.455.487-2.935,1.467-5.296,4.055-7.156,2.42-1.74,5.362-2.568,8.253-3.291,1.829-.458,3.128-.785,4.758-.956,0,0,19.949-3.227,40.986-3.227s40.784,2.97,40.784,2.97Z"/><path class="h" d="M297.182,379.244c1.826-1.881,5.446-4.023,8.415-3.702s5.592,1.58,7.802,3.082c1.224.831,2.416,1.775,4.003,2.126,3.7.819,6.353-2.28,9.635-4.178,1.464-.847,3.101.042,3.729,1.612.664,1.66,1.07,4.091,1.105,5.747.24,4.319-.13,9.076-3.095,12.226-2.878,3.059-6.185,3.503-9.938,5.391-2.886,1.451-6.556,3.893-9.365,5.489-7.187,4.084-16.932,3.363-23.376,2.474-2.669-.368-5.178-1.681-7.148-3.519s-3.21-5.062-2.435-7.642c.614-2.044,2.303-3.553,3.917-4.95,3.94-3.41,12.812-10.746,16.752-14.156"/><path class="h" d="M244.735,391.75c-1.178,2.696-.99,5.829-.276,7.073,1.287,2.243,2.081,3.42,4.527,4.576,5.68,2.685,12.364,1.57,18.473-.15,2.168-.611,5.679-1.5,7.75-2.294,0,0,.447-.105,1.107-.261-.081-.803-.025-1.6.199-2.344.614-2.044,2.303-3.553,3.917-4.95,3.203-2.772,9.667-8.14,14.089-11.883.1-1.22.179-2.193.179-2.193,0-2.222-.611-5.167-1.214-6.639-.409-1-1.412-1.584-2.396-1.139-2.947,1.332-5.21,3.802-8.44,3.087-1.299-.287-2.275-1.06-3.277-1.741-1.809-1.23-3.957-2.26-6.387-2.523s-5.453,1.843-6.888,3.03c-6.77,5.073-13.16,10.024-19.463,15.667-.846.758-1.465,1.691-1.899,2.683Z"/><path class="h" d="M327.921,374.118c-.091-1.731-.336-3.758-.27-4.941,0,0-.008-.25-.019-.619-.331.01-.663.017-.983.033-7.388.372-17.03.368-23.17-.281-.049.352-.085.598-.085.598-.13.88.112,4.785.037,6.047l-.044.745c.751-.171,1.499-.235,2.21-.158,2.969.321,5.592,1.58,7.802,3.082,1.224.831,2.416,1.775,4.003,2.126,3.7.819,6.353-2.28,9.635-4.178.283-.164.573-.263.861-.301.077-.568.068-1.327.024-2.152Z"/><path class="h" d="M272.985,366.179c5.804.687,13.564.773,17.597.202-.004.49-.004.981-.004.981,0,.884.3,3.038.354,3.889l.023.356c-2.883,1.345-5.125,3.729-8.306,3.025-1.299-.287-2.275-1.06-3.277-1.741-1.809-1.23-3.957-2.26-6.387-2.523v-4.191Z"/><path class="h" d="M359.074,250.161c-1.569-1.139-3.095-2.338-4.573-3.594-.741,3.182-2.929,4.527-6.122,4.041-2.089-.377-4.148-2.883-4.493-4.982-.56-3.402-1.331-5.38-1.563-6.838-.251-1.572-1.118-6.851-1.518-8.392,0,0-.626-4.927-1.192-9.37,4.563-.355,9.051-1.699,13.046-3.932,1.447,2.952,1.281,3.997,3.269,7.197,3.825,5.607,8.233,10.522,12.769,15.571,3.56,3.962,7.511,8.343,7.586,12.438.019,1.045-.353,2.131-1.106,2.856-.666.642-1.608.918-2.528,1.014-3.198.334-6.267-1.239-8.998-2.935-1.562-.97-3.089-1.996-4.577-3.076Z"/><path class="h" d="M262.414,93.452c-.088-.525-.127-1.067-.113-1.624.669.232,1.383.454,2.139.655,3.184.846,5.824.982,7.266.998,1.754.019,5.117-.101,9.049-1.325,6.066-1.887,9.912-5.287,12.262-7.416,1.1,3.28,3.124,6.217,5.729,8.478-3.108,3.137-6.445,6.029-10.426,7.891-4.699,2.189-10.127,2.797-15.191,1.681-4.918-1.079-9.9-4.482-10.715-9.338Z"/><path class="h" d="M234.764,116.088c-2.117,6.327-2.095,13.537-2.996,20.283-.759,5.666-2.221,11.213-3.692,16.733-.164.621-.393,1.316-.987,1.572-.375.155-.804.082-1.206.009-5.949-1.087-11.899-2.184-17.857-3.281-.731,5.721-2.55,15.654-4.981,23.459,9.002,3.208,18.46,4.843,27.873,6.47,1.828.32,3.683.631,5.52.356,2.513-.375,4.807-1.937,6.132-4.094-.782,15.468-1.507,31.573-1.265,32.07.362.747,1.079,1.248,1.776,1.699,11.554,7.476,25.722,10.119,39.478,9.724,13.192-.379,29.351-2.873,40.623-8.095l.98,7.223c3.03.207,8.835.62,8.835.62,7.821,1.08,16.027-.933,22.461-5.51l1.521-1.08-2.891-7.798c-3.718-10.74-10.187-34.21-12.806-44.614-3.1-12.314-4.383-23.23-8.675-34.7-2.213-5.915-6.741-14.033-10.995-18.241-7.241-7.164-14.343-14.038-21.602-16.974-3.474,3.629-7.166,7.075-11.691,9.191-4.699,2.189-10.127,2.797-15.191,1.681-4.394-.965-8.84-3.784-10.314-7.839l-7.103,3.039c-6.708,2.87-13.735,6.05-17.93,12.008-1.333,1.893-2.298,3.941-3.017,6.091Z"/><path class="j" d="M265.214,362.906c-2.577-6.531-5.062-17.999-6.556-26.851-5.342-35.175-11.096-86.471-12.15-121.202l-.045-1.475c10.876,5.94,23.655,8.068,36.096,7.71,13.519-.389,30.153-2.998,41.453-8.485.114,4.144.23,8.2.23,8.2,1.408,29.521,7.585,117.21,7.272,145.349-.267.737-.739,1.634-1.452,2.004-.846.44-2.211.374-3.413.434-10.193.513-24.68.31-28.335-1.314l-5.415-1.489c-3.151,1.753-25.182,1.083-27.161-1.629-.174-.393-.349-.812-.523-1.252Z"/><path class="f" d="M306.183,97.733c3.955,2.857,7.522,6.226,11.013,9.622,3.032,2.95,5.74,5.864,7.998,9.459,4.691,7.468,7.423,15.675,9.439,24.216,1.935,8.2,3.446,16.483,5.568,24.641,1.732,6.66,3.557,13.297,5.439,19.917,2.037,7.166,4.088,14.347,6.519,21.391.835,2.419,4.7,1.379,3.857-1.063-4.491-13.012-8.042-26.4-11.54-39.707-2.134-8.118-3.736-16.336-5.589-24.519-1.986-8.772-4.62-17.348-9.183-25.149-2.446-4.182-5.348-7.77-8.799-11.153-4.021-3.941-8.133-7.807-12.704-11.109-.876-.633-2.228-.151-2.736.718-.59,1.009-.161,2.102.718,2.736h0Z"/><path class="f" d="M244.507,214.853c.399,12.989,1.31,25.96,2.42,38.906,1.228,14.321,2.729,28.618,4.432,42.89,1.571,13.166,3.308,26.315,5.292,39.426,1.035,6.843,2.517,13.69,4.364,20.359.774,2.794,1.639,5.568,2.779,8.237.646,1.513,2.175,2.115,3.668,2.54,4.046,1.151,8.474,1.343,12.654,1.488,3.95.136,8.15.272,12.039-.569.607-.131,1.2-.324,1.751-.615,2.278-1.201.259-4.655-2.019-3.454-.273.144-.01-.002.146-.051-.104.032-.205.079-.311.104-.282.066-.56.145-.845.201-.154.03-.308.056-.463.082-.076.013-.539.078-.329.05-.004,0-.775.082-1.075.108-2.006.174-4.024.213-6.037.201-4.217-.025-8.606-.215-12.596-.977-.756-.144-1.512-.31-2.246-.544-.145-.046-.288-.1-.432-.147-.38-.124.048.033-.026-.004-.102-.052-.213-.122-.319-.162-.38-.141-.02-.175.025.059-.008-.04-.197-.132-.182-.177.027-.085.137.33.037-.197-.116-.612-.486-1.26-.695-1.851-.48-1.36-.909-2.739-1.31-4.124-1.865-6.433-3.229-13.022-4.387-19.615-2.203-12.549-3.658-25.276-5.19-37.92-1.67-13.794-3.15-27.612-4.386-41.451-1.145-12.816-2.102-25.656-2.611-38.514-.056-1.426-.106-2.853-.15-4.28-.079-2.568-4.079-2.579-4,0h0Z"/><path class="f" d="M281.583,245.147c-1.489-.447-2.978-.894-4.467-1.341-.49-.147-1.103-.055-1.541.202-.415.243-.811.718-.919,1.195-.245,1.077.324,2.138,1.397,2.46,1.489.447,2.978.894,4.467,1.341.49.147,1.103.055,1.541-.202.415-.243.811-.718.919-1.195.245-1.077-.324-2.138-1.397-2.46h0Z"/><path class="f" d="M291.865,87.251c1.239,2.812,3.152,5.359,5.464,7.379.787.688,2.064.833,2.828,0,.692-.754.841-2.093,0-2.828-.541-.473-1.059-.971-1.549-1.498-.238-.256-.469-.519-.693-.787-.112-.134-.221-.271-.331-.407-.257-.32.207.278.063.082-.058-.078-.117-.155-.174-.233-.853-1.159-1.574-2.409-2.154-3.726-.189-.428-.765-.801-1.195-.919-.479-.132-1.116-.072-1.541.202-.427.275-.803.685-.919,1.195-.127.557-.027,1.022.202,1.541h0Z"/><path class="f" d="M323.59,210.585c-6.334,3.156-13.313,4.979-20.239,6.288-7.195,1.36-14.535,2.113-21.857,2.239-7.718.133-15.457-.7-22.875-2.886-3.63-1.07-7.156-2.458-10.503-4.229-1.6-.847-3.071-1.897-4.633-2.788-.297-.169-.152-.29-.256-.091.089-.169-.041.487.057.449.008-.003-.017-.213-.016-.236.215-5.476.314-10.96.564-16.439.405-8.88.855-17.758,1.33-26.635.299-5.589.645-11.174.975-16.761.027-.449.063-.329-.028.12.51-2.513-3.345-3.588-3.857-1.063-.313,1.541-.272,3.21-.366,4.771-.205,3.409-.393,6.818-.578,10.228-.495,9.118-.961,18.239-1.385,27.361-.28,6.02-.839,12.141-.662,18.171.051,1.729,1.107,2.836,2.511,3.809,3.241,2.247,6.914,3.961,10.573,5.403,7.433,2.928,15.426,4.351,23.387,4.73,7.707.368,15.477-.276,23.103-1.372,7.468-1.073,14.954-2.704,21.983-5.491,1.625-.644,3.227-1.347,4.791-2.126,2.304-1.148.281-4.6-2.019-3.454h0Z"/><path class="f" d="M260.454,93.78c1.335,8.144,10.778,11.643,18.036,11.554,4.391-.054,8.732-1.225,12.555-3.384s7.1-5.22,10.144-8.371c1.789-1.852-1.036-4.684-2.828-2.828-5.23,5.414-11.164,10.18-19.006,10.557-5.793.279-13.943-1.879-15.043-8.591-.175-1.067-1.498-1.661-2.46-1.397-1.133.311-1.572,1.39-1.397,2.46h0Z"/><path class="f" d="M310.28,140.625c.725,8.282,2.327,16.515,3.811,24.685,1.884,10.375,3.903,20.725,5.832,31.091.92,4.946,1.828,9.895,2.635,14.861.173,1.067,1.499,1.661,2.46,1.397,1.134-.312,1.571-1.39,1.397-2.46-3.149-19.373-7.393-38.554-10.549-57.926-.652-4.001-1.24-7.675-1.587-11.647-.094-1.076-.852-2-2-2-1.009,0-2.095.918-2,2h0Z"/><path class="f" d="M332.997,222.836c8.183,1.078,16.718-1.042,23.47-5.783.883-.62,1.295-1.749.718-2.736-.511-.873-1.848-1.341-2.736-.718-6.263,4.397-13.868,6.236-21.451,5.237-1.073-.141-2,1.02-2,2,0,1.198.924,1.858,2,2h0Z"/><path class="f" d="M351.291,218.87c.622,1.417,1.061,2.905,1.73,4.305.914,1.913,2.189,3.616,3.458,5.305,2.709,3.608,5.648,7.029,8.65,10.395,2.883,3.233,6.206,6.387,8.218,10.272.583,1.125,1.583,3.368.506,4.497-1.248,1.308-4.166.369-5.551-.186-2.243-.899-4.313-2.324-6.302-3.676-2.11-1.435-4.135-2.981-6.085-4.628-1.103-.932-2.947-.676-3.343.883-.485,1.909-1.887,3.183-3.975,2.572-2.836-.83-2.9-4.526-3.474-6.831-.48-1.927-.912-3.805-1.24-5.763-.343-2.05-.645-4.13-1.15-6.149-.625-2.496-4.484-1.438-3.857,1.063.612,2.442.96,4.966,1.365,7.448.176,1.076.407,2.122.689,3.176.461,1.724.66,3.548,1.18,5.245,1.05,3.427,4.212,6.125,7.88,5.896,3.342-.208,5.629-2.409,6.439-5.595l-3.343.883c3.844,3.247,8.065,6.574,12.658,8.698,4.044,1.87,11.283,2.877,12.408-3.061.888-4.69-2.84-9.18-5.657-12.474-3.31-3.87-6.825-7.557-10.054-11.5-1.81-2.21-3.698-4.486-5.146-6.956-1.086-1.851-1.692-3.882-2.551-5.838-.434-.989-1.881-1.218-2.736-.718-1.02.597-1.153,1.743-.718,2.736h0Z"/><path class="f" d="M240.57,177.587v.009l.273-1.009c-1.624,2.516-4.276,3.406-7.168,3.148-3.336-.298-6.699-1.093-9.99-1.706-6.805-1.267-13.572-2.785-20.107-5.093l1.397,2.46c2.409-7.798,4.006-15.901,5.052-23.991l-2.532,1.929c3.379.622,6.759,1.244,10.138,1.866,1.447.266,2.895.532,4.342.797,1.6.293,3.632,1.022,5.256.697,2.973-.595,3.254-4.827,3.865-7.203.829-3.229,1.598-6.477,2.166-9.763,1.772-10.249.28-22.945,8.162-30.983,4.191-4.274,9.882-6.709,15.296-9.028.993-.425,1.215-1.887.718-2.736-.601-1.027-1.739-1.145-2.736-.718-4.851,2.078-9.677,4.268-13.82,7.594-4.104,3.294-6.888,7.709-8.373,12.739-1.545,5.233-1.804,10.752-2.332,16.152-.582,5.955-1.899,11.747-3.419,17.524-.069.261-.863,2.396-.7,2.616l-.021.065c-.081.207.044.142.377-.196-.004-.059-1.247-.228-1.447-.265-1.769-.324-3.538-.648-5.307-.973-3.701-.68-7.402-1.362-11.103-2.043-1.401-.258-2.356.57-2.532,1.929-.999,7.727-2.61,15.482-4.909,22.927-.335,1.085.403,2.109,1.397,2.46,7.517,2.654,15.332,4.257,23.165,5.649,3.744.665,7.862,1.882,11.666,1.113,1.538-.311,2.984-1.021,4.227-1.966,1.141-.867,2.998-2.441,2.998-4.001,0-2.574-4-2.578-4,0h0Z"/><path class="f" d="M207.543,152.343c-.411-.035-.821-.08-1.23-.134l.532.071c-.848-.115-1.689-.273-2.52-.476-.513-.126-1.08-.068-1.541.202-.415.243-.811.718-.919,1.195-.117.512-.091,1.087.202,1.541.278.431.684.794,1.195.919,1.404.344,2.842.558,4.282.682.484.042,1.082-.253,1.414-.586.347-.347.608-.916.586-1.414-.023-.517-.193-1.054-.586-1.414l-.405-.313c-.312-.181-.648-.272-1.009-.273h0Z"/><path class="f" d="M203.243,169.128c-2.642-.514-5.243-1.218-7.775-2.131-.986-.355-2.233.4-2.46,1.397-.256,1.125.342,2.08,1.397,2.46,2.532.913,5.133,1.617,7.775,2.131,1.024.199,2.208-.288,2.46-1.397.225-.989-.299-2.247-1.397-2.46h0Z"/><path class="f" d="M279.603,247.071c1.028,15.227,2.417,30.43,3.908,45.618,1.574,16.035,3.287,32.056,5.044,48.072.877,7.991,1.765,15.98,2.651,23.97.119,1.073.834,2,2,2,.989,0,2.12-.919,2-2-1.639-14.796-3.287-29.591-4.859-44.394-1.713-16.125-3.353-32.26-4.779-48.413-.731-8.278-1.405-16.561-1.965-24.853-.173-2.555-4.174-2.574-4,0h0Z"/><path class="f" d="M297.304,369.004c2.431,1.035,5.159,1.241,7.768,1.454,3.731.305,7.482.382,11.224.383,3.989.001,8.01-.04,11.992-.311,2.334-.159,3.989-1.075,4.926-3.283.432-1.019.311-2.187.311-3.279,0-9.996-.445-19.997-.895-29.981-.596-13.225-1.326-26.444-2.088-39.66s-1.574-26.547-2.375-39.819c-.623-10.317-1.261-20.635-1.789-30.958-.047-.916-.092-1.832-.136-2.747-.123-2.563-4.123-2.578-4,0,.452,9.447,1.034,18.888,1.601,28.328.763,12.694,1.54,25.388,2.286,38.083.772,13.153,1.517,26.308,2.158,39.468.518,10.625,1.006,21.257,1.188,31.893.033,1.943.054,3.886.05,5.829,0,.421.005.843-.006,1.263-.002.094.02.24-.003.325.052-.189.04-.221-.098-.031-.273.376-.287.442-.731.538-.859.185-1.86.085-2.739.126-.972.045-1.945.082-2.918.112-6.975.217-14.329.463-21.207-.64-.513-.082-1.026-.175-1.532-.295-.242-.057-.48-.126-.72-.191-.124-.034-.758-.279-.247-.062-.993-.423-2.143-.297-2.736.718-.492.84-.282,2.311.718,2.736h0Z"/><path class="f" d="M325.651,369.177c-.118,2.365.553,4.752.244,7.111-.062.47.268,1.096.586,1.414.347.347.916.608,1.414.586.517-.023,1.054-.193,1.414-.586.384-.418.513-.856.586-1.414.309-2.359-.362-4.746-.244-7.111.052-1.047-.957-2.047-2-2-1.128.051-1.944.879-2,2h0Z"/><path class="f" d="M301.465,368.376c-.301,2.18.087,4.389-.034,6.579-.058,1.046.961,2.047,2,2,1.133-.051,1.938-.879,2-2,.058-1.039-.009-2.09-.038-3.129-.027-.95-.118-1.943-.003-2.891l-.071.532.004-.028c.077-.557.095-1.034-.202-1.541-.243-.415-.718-.811-1.195-.919-.512-.117-1.087-.091-1.541.202-.404.261-.85.695-.919,1.195h0Z"/><path class="f" d="M288.579,367.363c.005,1.301.268,2.592.354,3.889.035.533.199,1.028.586,1.414.347.347.916.608,1.414.586.517-.023,1.054-.193,1.414-.586.345-.376.62-.886.586-1.414-.085-1.297-.348-2.588-.354-3.889-.002-.514-.222-1.05-.586-1.414-.347-.347-.916-.608-1.414-.586-.517.023-1.054.193-1.414.586-.358.39-.588.873-.586,1.414h0Z"/><path class="f" d="M274.676,399.027c-2.986,1.116-6.135,1.893-9.218,2.691-3.455.895-7.007,1.519-10.587,1.212-2.792-.239-6.142-1.157-7.78-3.617-.347-.521-.724-1.074-.983-1.644.143.314-.033-.133-.058-.246-.045-.207-.113-.502-.131-.654-.128-1.074.023-2.324.351-3.41.397-1.315,1.122-2.288,2.135-3.196,1.47-1.318,2.97-2.603,4.482-3.872,3.042-2.553,6.152-5.024,9.303-7.44,1.568-1.203,3.151-2.386,4.726-3.58,1.147-.869,2.275-1.753,3.589-2.364,2.896-1.348,5.911.374,8.309,2.024,1.591,1.094,3.335,1.933,5.319,1.819,1.811-.104,3.437-.887,4.973-1.797.748-.443,1.594-.838,2.299-1.34.299-.213.402-.07.197-.235.166.134.227.597.286.791.508,1.67.788,3.411.813,5.155.036,2.572,4.036,2.579,4,0-.026-1.868-.305-3.766-.775-5.574-.453-1.741-1.171-3.556-3.034-4.17-3.64-1.2-6.131,3.804-9.71,3.125-1.696-.322-3.146-1.871-4.66-2.649-1.788-.92-3.824-1.651-5.855-1.706-3.671-.101-6.748,2.693-9.483,4.758-3.698,2.792-7.368,5.623-10.954,8.559-1.763,1.443-3.505,2.91-5.221,4.408-1.454,1.269-2.907,2.483-3.794,4.236-1.276,2.522-1.857,5.929-.865,8.653,1.204,3.306,3.894,5.542,7.085,6.787,4.412,1.72,9.33,1.438,13.893.557,4.148-.801,8.454-1.941,12.414-3.421,2.39-.893,1.355-4.761-1.063-3.857h0Z"/><path class="f" d="M298.596,380.658c1.486-1.483,3.485-2.741,5.584-3.084,2.302-.377,4.891.784,6.835,1.911,2.041,1.184,3.828,2.858,6.235,3.265,2.529.428,4.838-.467,6.927-1.84.918-.604,1.793-1.269,2.706-1.879.566-.378,1.261-1.143,1.829-.465.612.732.747,2.121.915,3.025.202,1.091.251,2.192.286,3.299.144,4.557-.626,9.191-4.853,11.697-1.98,1.174-4.216,1.839-6.303,2.791-2.278,1.039-4.411,2.381-6.543,3.684-1.964,1.201-3.92,2.529-6.076,3.361-2.259.872-4.669,1.38-7.076,1.603-4.257.394-8.822.263-13.031-.544-2.293-.44-4.623-1.626-6.165-3.413-1.241-1.438-2.075-3.72-1.297-5.564.881-2.089,3.125-3.571,4.804-5.002,1.638-1.395,3.286-2.779,4.935-4.163,3.437-2.885,6.893-5.748,10.288-8.682,1.951-1.686-.889-4.505-2.828-2.828-3.395,2.934-6.851,5.797-10.288,8.682-1.683,1.413-3.366,2.826-5.039,4.252-1.812,1.544-3.77,3.066-5.01,5.138-3.177,5.306.642,11.349,5.462,13.942,2.349,1.264,4.816,1.654,7.43,1.948,2.534.284,5.086.448,7.637.402,5.55-.099,10.855-1.24,15.655-4.089,2.416-1.434,4.772-2.972,7.243-4.311,2.342-1.27,4.893-2.037,7.266-3.233s4.505-3.017,5.807-5.362c1.318-2.376,1.828-5.094,1.965-7.782.206-4.043.124-13.485-5.906-13.158-2.967.16-5.097,3.225-7.747,4.287-2.824,1.131-4.944-1.197-7.209-2.513-2.747-1.596-6.159-2.875-9.376-2.4-2.959.437-5.79,2.104-7.89,4.199-1.825,1.821,1.003,4.65,2.828,2.828h0Z"/><path class="f" d="M144.252,179.471c3.212,3.228,8.04,5.23,12.547,5.436,5.242.24,10.535-.411,15.669-1.435,9.659-1.927,24.797-5.105,24.542-17.785-.053-2.65-.712-5.248-1.369-7.8-.738-2.865-1.562-5.71-2.5-8.517-1.486-4.445-3.146-9.995-7.063-12.926-2.323-1.738-5.168-2.218-8.003-2.224-2.719-.007-5.439.038-8.153.215-4.623.302-9.203,1.035-13.649,2.354-2.728.809-5.458,1.644-7.711,3.444-1.894,1.514-3.413,3.588-4.079,5.933-1.217,4.279-1.449,9.072-1.463,13.502-.008,2.574,3.992,2.578,4,0,.011-3.525.251-7.125.901-10.593.342-1.823.595-2.878,1.678-4.262,1.352-1.729,3.153-2.667,5.186-3.355,3.741-1.266,7.592-2.236,11.519-2.697,2.175-.255,4.361-.395,6.549-.469,2.433-.082,5.104-.359,7.511.039,2.25.372,3.991,1.501,5.209,3.424,1.064,1.68,1.837,3.54,2.542,5.393,1.839,4.839,3.337,9.885,4.432,14.945.436,2.014.721,4.202.214,6.229-.532,2.128-2.015,3.855-3.714,5.18-4.063,3.168-9.045,4.238-13.962,5.313-5.33,1.166-10.658,2.13-16.134,2.138-2.246.003-4.3-.139-6.413-.962-1.948-.758-3.974-1.856-5.459-3.349-1.818-1.827-4.647,1.001-2.828,2.828h0Z"/><path class="f" d="M151.172,151.814c2.12,1.958,4.837,2.638,7.653,2.791,3.311.18,6.618.038,9.902-.42,3-.418,6.089-1.041,8.915-2.156,2.439-.962,4.834-2.307,5.865-4.838.408-1.001-.443-2.198-1.397-2.46-1.145-.315-2.051.392-2.46,1.397-.23.564-1.142,1.042-1.647,1.333-.785.453-1.6.802-2.459,1.082-2.541.828-5.188,1.433-7.838,1.777-2.55.332-5.135.417-7.704.334-2.08-.067-4.386-.177-6.001-1.669-1.889-1.744-4.725,1.077-2.828,2.828h0Z"/><path class="i" d="M88.357,211.23c8.928,1.082,17.265,5.101,22.652,12.479,9.593,13.138,7.198,34.332-5.18,44.888-13.317,11.357-36.21,9.262-47.128-4.408-10.929-13.684-8.794-34.965,4.908-45.665,6.757-5.277,16.287-8.319,24.748-7.294Z"/><path class="f" d="M39.049,332.616c6.632,2.178,13.713,3.049,20.621,3.868,4.034.478,8.081.827,12.139,1.035,11.716.6,23.499.156,35.135-1.334,7.198-.921,14.753-1.626,21.556-4.292,1.005-.394,1.705-1.341,1.397-2.46-.263-.958-1.449-1.793-2.46-1.397-6.049,2.37-12.665,3.098-19.06,3.961-6.279.847-12.596,1.384-18.927,1.63-9.156.356-18.345.09-27.457-.881-7.324-.781-14.86-1.681-21.881-3.987-2.451-.805-3.502,3.056-1.063,3.857h0Z"/><path class="f" d="M124.306,313.866c3.817.52,7.818,1.655,11.286,3.34,1.592.773,2.926,1.808,3.772,3.399,1.12,2.107.932,4.238.814,6.541-.583,11.39-1.909,22.735-3.973,33.951-2.09,11.357-4.913,22.578-8.411,33.583-1.219,3.834-2.538,7.642-4.797,11.008-2.399,3.575-5.894,6.143-10.007,7.407-5.174,1.59-10.702,1.49-16.058,1.463-2.731-.014-5.462-.014-8.193-.016-6.487-.005-12.975.025-19.462.024-5.172-.001-10.508-.113-15.404-1.975-3.898-1.483-7.015-4.355-9.164-7.886-2.182-3.585-3.421-7.605-4.66-11.585-1.723-5.533-3.275-11.12-4.648-16.751-2.732-11.202-4.767-22.578-6.021-34.041-.629-5.746-1.07-11.512-1.32-17.286-.088-2.027.407-4.105,1.754-5.694,1.547-1.825,3.913-2.789,6.141-3.479,2.296-.711,4.721-1.398,7.114-1.673,1.073-.123,2-.831,2-2,0-.985-.92-2.124-2-2-2.632.303-5.229.94-7.767,1.692-2.672.792-5.29,1.895-7.414,3.74-1.753,1.523-2.896,3.621-3.48,5.85-.743,2.838-.248,5.952-.064,8.851.777,12.229,2.399,24.412,4.822,36.423,1.22,6.049,2.647,12.055,4.273,18.008,1.452,5.317,2.926,10.704,4.91,15.852,1.58,4.099,3.669,8.066,6.882,11.131,3.722,3.55,8.519,5.451,13.554,6.199,4.663.693,9.366.627,14.066.612,3.36-.01,6.72-.011,10.08-.012,3.663,0,7.325,0,10.988.008,4.254.009,8.523.131,12.764-.261,5.466-.505,10.768-1.91,15.111-5.4,3.39-2.725,5.755-6.472,7.445-10.436,2.067-4.848,3.489-9.992,4.927-15.053,1.686-5.936,3.175-11.929,4.458-17.965,2.53-11.904,4.265-23.986,5.171-36.122.222-2.979.4-5.962.513-8.947.085-2.257-.73-4.776-2.008-6.638-2.482-3.616-6.798-5.083-10.818-6.305-1.998-.607-4.036-1.129-6.108-1.411-1.069-.146-2.147.258-2.46,1.397-.256.933.32,2.313,1.397,2.46h0Z"/><path class="g" d="M76.029,302.192c1.192,1.095,2.523,1.464,4.152,1.739,2.003.338,4.603.309,6.633.259s4.693-.259,5.967-1.404c5.303-6.884,14.651-10.389,23.172-8.688,2.593.517,4.11,1.398,4.202,4.153.079,2.362-.333,4.722-1.12,6.946-1.572,4.441-4.608,8.358-8.404,11.128-8.036,5.863-18.848,7.024-28.461,6.286-6.311.349-13.321-.525-19.312-3.029-4.49-1.877-8.592-4.873-11.284-8.928-2.65-3.991-6.247-14.995.805-16.47,8.551-1.788,17.963,1.411,23.653,8.04"/><path class="f" d="M91.379,227.785c-2.585,2.646-4.81,5.626-7.282,8.374-.699.778-.825,2.071,0,2.828.764.701,2.081.831,2.828,0,2.472-2.749,4.697-5.729,7.282-8.374.732-.749.802-2.092,0-2.828-.791-.726-2.047-.8-2.828,0h0Z"/><path class="f" d="M75.774,230.271c.692.802,1.363,1.621,2.015,2.455.052.066.296.385.046.058.067.088.135.175.202.263.149.195.297.392.445.588.302.403.601.809.897,1.217.991,1.366,1.946,2.757,2.922,4.134.603.852,1.774,1.338,2.736.718.845-.545,1.364-1.823.718-2.736-2.297-3.243-4.55-6.513-7.151-9.526-.686-.795-2.134-.756-2.828,0-.777.847-.732,1.981,0,2.828h0Z"/><path class="f" d="M76.763,242.822c2.965-.153,5.946-.115,8.914-.088,2.654.025,5.345-.011,7.99.237,1.077.101,2-.992,2-2,0-1.166-.92-1.899-2-2-2.646-.248-5.336-.212-7.99-.237-2.968-.028-5.949-.065-8.914.088-1.079.056-2,.879-2,2,0,1.04.916,2.056,2,2h0Z"/><path class="f" d="M76.418,251.398c5.467-.031,10.93-.056,16.396.099,2.575.073,2.573-3.927,0-4-5.466-.155-10.929-.13-16.396-.099-2.573.015-2.579,4.015,0,4h0Z"/><path class="f" d="M83.514,237.364c-1.124,6.683-1.217,13.603-1.401,20.364-.07,2.575,3.93,2.573,4,0,.088-3.222.217-6.443.398-9.661.102-1.817.221-3.634.377-5.448.07-.808.147-1.615.238-2.42.097-.857.104-.932.246-1.772.179-1.064-.281-2.153-1.397-2.46-.959-.264-2.28.326-2.46,1.397h0Z"/><path class="f" d="M88.357,213.23c6.866.865,13.587,3.696,18.489,8.662,4.369,4.427,6.959,10.303,7.774,16.438,1.58,11.9-3.166,25.085-13.78,31.381-10.304,6.112-24.15,5.495-34.141-.968-10.361-6.702-14.853-19.889-12.241-31.739,1.319-5.983,4.326-11.498,8.871-15.636,5.244-4.775,12.477-7.757,19.536-8.258,1.833-.13,3.667-.087,5.492.121,1.075.122,2-1.007,2-2,0-1.183-.922-1.877-2-2-8.076-.918-16.57,1.471-23.352,5.857-6.023,3.895-10.507,9.552-13.038,16.252-4.843,12.816-1.71,28.597,8.689,37.802,10.089,8.93,25.549,11.27,37.95,6.121,6.356-2.639,11.635-7.153,15.146-13.088s5.231-12.898,5.147-19.76c-.083-6.787-1.945-13.723-5.875-19.312-4.521-6.428-11.309-10.795-18.868-12.795-1.907-.504-3.844-.83-5.799-1.077-1.073-.135-2,1.016-2,2,0,1.193.923,1.864,2,2Z"/><path class="f" d="M60.766,255.018c2.931,8.822,12.618,14.791,21.737,14.587,2.57-.058,2.579-4.058,0-4-7.278.163-15.506-4.503-17.88-11.65-.808-2.431-4.672-1.389-3.857,1.063h0Z"/><path class="f" d="M105.654,227.7c-1.106-2.266-2.886-4.163-4.866-5.693-1.969-1.521-4.233-2.743-6.67-3.311-1.017-.237-2.214.315-2.46,1.397-.233,1.022.307,2.206,1.397,2.46.504.118.999.263,1.486.439.119.043.237.091.356.134.359.13-.205-.097.021.005.262.119.524.237.781.366.478.239.943.502,1.397.785.23.143.456.292.679.446.134.093.267.187.399.283.042.03.405.304.189.138s.182.148.182.148c.105.086.21.173.313.262.206.176.409.357.607.543.411.386.803.791,1.172,1.217.087.1.172.201.256.303.132.161.189.243.029.028.155.208.307.417.451.632.308.46.583.939.826,1.437.46.943,1.875,1.273,2.736.718.966-.623,1.21-1.728.718-2.736h0Z"/><path class="f" d="M88.484,324.795c11.537-.279,23.881-3.978,30.246-14.346,1.564-2.547,2.692-5.42,3.157-8.376.406-2.576.725-5.819-1.216-7.892-1.641-1.753-4.292-2.12-6.554-2.369-2.64-.291-5.323-.102-7.919.444-5.775,1.214-11.183,4.464-14.83,9.116-.666.849-.828,2,0,2.828.693.693,2.158.855,2.828,0,2.713-3.46,6.36-6.059,10.55-7.417,2.077-.673,4.221-1.063,6.406-1.106,1.875-.037,4.093.022,5.851.763,1.674.706,1.238,3.029,1.026,4.57-.344,2.503-1.268,4.916-2.551,7.083-2.45,4.14-6.188,7.208-10.504,9.259-5.118,2.432-10.871,3.307-16.491,3.443-2.57.062-2.579,4.062,0,4h0Z"/><path class="f" d="M79.494,320.683c-10.074-.045-22.569-3.142-27.322-13.071-1.257-2.625-2.435-6.376-1.726-9.16.335-1.313.975-2.004,2.466-2.342,2.349-.532,4.893-.553,7.273-.233,5.581.749,10.737,3.524,14.434,7.759,1.696,1.943,4.515-.896,2.828-2.828-3.907-4.477-9.411-7.56-15.253-8.633-2.949-.541-5.906-.607-8.872-.18-2.306.332-4.393,1.096-5.739,3.108-2.345,3.505-1.239,8.562.149,12.213,1.854,4.878,5.195,8.756,9.574,11.599,6.486,4.211,14.559,5.732,22.189,5.766,2.574.012,2.578-3.988,0-4h0Z"/><path class="f" d="M83.068,277.969c-.17,7.437-.384,14.873-.632,22.308-.074,2.22-.152,4.439-.23,6.658-.034.949-.171,1.955-.007,2.899.33,1.908,3.528,1.911,3.857,0v-.005c.184-1.063-.283-2.154-1.396-2.46-.963-.265-2.276.327-2.46,1.397v.005h3.856c.181,1.047.081.142.092-.198.022-.638.045-1.276.068-1.914.079-2.236.157-4.473.231-6.71.243-7.326.453-14.653.621-21.981.059-2.575-3.941-2.574-4,0h0Z"/><path class="f" d="M90.055,178.18c-2.97,1.592-5.125,4.577-6.716,7.473-1.658,3.019-2.51,6.262-2.922,9.664-.13,1.074,1.012,2,2,2,1.189,0,1.87-.923,2-2,.336-2.776,1.117-5.353,2.376-7.645,1.287-2.342,2.89-4.757,5.281-6.038.952-.51,1.248-1.829.718-2.736-.563-.962-1.781-1.23-2.736-.718h0Z"/><path class="f" d="M96.386,183.515c-2.238,4.263-2.915,9.103-2.076,13.83.183,1.033,1.499,1.708,2.46,1.397,1.11-.359,1.593-1.354,1.397-2.46-.104-.588-.115-.648-.166-1.239-.044-.514-.067-1.03-.069-1.546-.002-.511.016-1.022.055-1.532.019-.253.044-.505.072-.757.017-.142.017-.144-.002-.005.02-.142.042-.284.066-.426.328-1.977.892-3.674,1.717-5.244.486-.926.267-2.216-.718-2.736-.922-.487-2.217-.272-2.736.718h0Z"/><path class="f" d="M151.069,281.883l.158.125c.921.729,1.901.746,2.828,0,.667-.536.756-1.393.964-2.169s.436-1.541.695-2.298c.457-1.336,1.001-2.779,1.889-3.897.863-1.086,2.216-1.812,3.459-2.369.803-.36,1.655-.635,2.508-.848.895-.224,1.871-.213,2.51-.974.725-.862.774-1.965,0-2.828-.649-.724-1.463-.724-2.349-.901-.776-.155-1.546-.351-2.293-.613-1.303-.458-2.47-1.208-3.423-2.206-1.087-1.139-1.888-2.553-2.353-4.054-.455-1.468-.306-3.815-1.406-4.914-.568-.568-1.725-.835-2.424-.313-1.457,1.09-1.646,3.497-2.273,5.15-.5,1.32-1.072,2.736-1.958,3.851-.832,1.047-1.979,1.762-3.224,2.215-.781.284-1.591.492-2.4.678-1.01.233-2.322.231-3.018,1.097-.687.854-.817,1.982,0,2.828.754.78,1.676.705,2.661.898.8.157,1.605.374,2.358.692,1.394.589,2.93,1.563,3.928,2.717,1.647,1.903,2.073,4.881,2.648,7.25.607,2.5,4.465,1.441,3.857-1.063-.733-3.02-1.423-6.387-3.499-8.811-2.577-3.009-6.548-4.553-10.39-4.943l1.414.586-.149-.154v2.828l.136-.169-.883.514c3.388-.654,6.903-1.524,9.283-4.215,2.274-2.571,3.493-6.285,4.279-9.567l-.919,1.195.167-.125-2.424-.313.15.15-.586-1.414c.419,3.748,1.447,7.266,4.066,10.097,2.344,2.534,5.594,3.703,8.931,4.209l-.883-.514.144.161v-2.828l-.135.161.883-.514c-3.313.53-7.177,2.028-9.351,4.704-2.046,2.518-3.03,5.854-3.778,8.961l.514-.883-.157.126h2.828l-.158-.125c-.846-.67-2.003-.826-2.828,0-.696.696-.851,2.154,0,2.828Z"/><path class="f" d="M8.994,364.564l.11.087c.921.729,1.901.746,2.828,0,.842-.676.972-2.386,1.311-3.377.302-.884.648-1.803,1.253-2.567-.165.208.225-.218.223-.216.156-.151.307-.267.455-.371.47-.33.986-.612,1.511-.844.511-.226,1.059-.394,1.6-.529.734-.184,1.485-.203,2.015-.834.725-.862.774-1.965,0-2.828-.805-.897-2.406-.818-3.499-1.21-.756-.272-1.517-.753-2.114-1.379-.685-.718-1.189-1.609-1.481-2.554-.36-1.162-.255-2.81-1.135-3.689-.568-.568-1.725-.835-2.424-.313-.79.591-.99,1.188-1.244,2.085-.178.629-.386,1.251-.617,1.862-.182.48-.385.947-.619,1.404-.103.201-.21.4-.325.595-.038.063-.44.631-.263.414-.579.71-1.276,1.14-1.976,1.386-.547.192-1.106.342-1.671.472-.821.19-1.799.211-2.369.92-.687.854-.817,1.982,0,2.828.853.883,2.556.763,3.616,1.202.989.409,1.908,1.043,2.611,1.796.088.101.085.091-.011-.031.079.111.153.225.223.341.13.215.245.439.353.666.088.187.316.809.443,1.212.269.852.469,1.722.679,2.59.607,2.5,4.465,1.441,3.857-1.063-.537-2.21-1.062-4.638-2.592-6.401-1.921-2.214-4.819-3.33-7.662-3.618l1.414.586-.104-.108v2.828l.094-.117-.883.514c2.464-.476,4.997-1.142,6.729-3.09,1.66-1.867,2.562-4.536,3.135-6.927l-.919,1.195.116-.087-2.424-.313.105.105-.586-1.414c.31,2.777,1.067,5.36,3.008,7.458,1.698,1.836,4.064,2.719,6.485,3.086l-.883-.514.1.112v-2.828l-.094.112.883-.514c-2.408.386-5.191,1.501-6.777,3.431-1.504,1.83-2.24,4.236-2.786,6.505l.514-.883-.109.088h2.828l-.11-.087c-.846-.67-2.003-.826-2.828,0-.696.696-.851,2.154,0,2.828Z"/><path class="f" d="M23.96,228.546l.158.125c.921.729,1.901.746,2.828,0,.667-.536.756-1.393.963-2.168s.436-1.54.694-2.297c.456-1.335,1-2.777,1.888-3.895.862-1.086,2.215-1.811,3.457-2.368.802-.36,1.654-.635,2.506-.848.894-.224,1.87-.213,2.509-.974.725-.862.774-1.965,0-2.828-.649-.724-1.463-.724-2.348-.901-.776-.155-1.545-.351-2.292-.613-1.302-.458-2.469-1.207-3.421-2.205-1.086-1.139-1.887-2.551-2.351-4.052-.454-1.468-.306-3.813-1.405-4.912-.568-.568-1.725-.835-2.424-.313-1.456,1.089-1.646,3.495-2.272,5.148-.5,1.319-1.072,2.735-1.957,3.849-.831,1.046-1.978,1.761-3.222,2.214-.781.284-1.59.491-2.399.678-1.01.233-2.321.231-3.017,1.097-.687.854-.817,1.982,0,2.828.753.78,1.675.705,2.66.898.8.157,1.604.374,2.356.692,1.394.589,2.928,1.562,3.926,2.715,1.646,1.902,2.071,4.878,2.647,7.247.607,2.5,4.465,1.441,3.857-1.063-.733-3.019-1.423-6.384-3.498-8.807-2.576-3.008-6.546-4.552-10.386-4.941l1.414.586-.149-.154v2.828l.136-.169-.883.514c3.387-.654,6.9-1.523,9.279-4.213,2.273-2.57,3.491-6.283,4.278-9.563l-.919,1.195.167-.125-2.424-.313.15.15-.586-1.414c.418,3.746,1.446,7.263,4.064,10.093,2.343,2.533,5.592,3.702,8.928,4.207l-.883-.514.144.16v-2.828l-.135.161.883-.514c-3.311.53-7.174,2.027-9.347,4.702-2.045,2.517-3.029,5.851-3.776,8.957l.514-.883-.157.126h2.828l-.158-.125c-.846-.67-2.003-.826-2.828,0-.696.696-.851,2.154,0,2.828Z"/><path class="h" d="M250.413,43.791c3.822-3.155,8.144-6.27,11.518-7.792.623-.281,1.4.14,1.619,1.091.445,1.925-.454,4.63,1.018,4.139,2.551-.851,10.274-5.644,16.217-7.774l5.758,2.375c.646.357,1.563.921,2.556,1.747.421.35,1.777,1.573,3.305,3.725,1.862,2.623,4.197,6.925,7.03,13.85l1.958-1.23c1.975-1.93,5.371-1.934,7.624-.338s3.376,4.483,3.271,7.243-1.309,5.386-2.941,7.613c-2.149,2.932-5.15,5.079-8.502,6.512-2.636,4.647-5.65,7.818-7.802,9.769-2.348,2.128-6.199,5.543-12.284,7.436-3.932,1.223-7.295,1.344-9.049,1.325-1.442-.016-4.082-.152-7.266-.998-4.509-1.199-7.546-3.14-8.162-3.541-3.783-2.465-5.922-5.275-7.415-7.274-3.37-4.511-4.814-8.69-5.673-11.245-1.552-4.614-2.029-8.556-2.342-11.267-.244-2.107-.346-3.896-.391-5.216,0,0-.005-.159-.016-.426,1.577-1.725,4.147-4.533,4.147-4.533,1.593-1.545,3.627-3.374,5.826-5.189Z"/><path class="k" d="M312.428,35.472c-.952-7.409-3.502-14.882-8.415-18.898l-4.512-4.022c-1.602-1.602-7.364-8.163-20.328-9.363-15.366-1.422-26.828,3.47-31.744,8.896l-.397,5.176c-6.625,5.968-10.316,16.789-8.373,31.721.062.949.138,1.886.227,2.805.101,1.039.218,2.054.352,3.04.116-.129,5.348-5.846,5.348-5.846,4.363-4.232,12.028-10.583,17.344-12.981.623-.281,1.4.14,1.619,1.091.445,1.925-.454,4.63,1.018,4.139,2.551-.851,10.274-5.644,16.217-7.774l5.758,2.375c.646.357,1.563.921,2.556,1.747.421.35,1.777,1.573,3.305,3.725,1.862,2.623,4.197,6.925,7.03,13.85l1.958-1.23c1.975-1.93,5.371-1.934,7.624-.338.645.457,1.198,1.02,1.655,1.656,1.352-3.305,2.198-9.67,2.206-12.576.006-2.306-.134-4.745-.448-7.191Z"/><path class="f" d="M302.806,55.335c1.437-1.321,3.831-1.139,5.295.053,1.83,1.489,2.449,4.076,2.106,6.332-.829,5.452-5.567,9.401-10.338,11.489-.99.433-1.217,1.882-.718,2.736.597,1.021,1.743,1.152,2.736.718,6.373-2.788,12.623-9.03,12.401-16.475-.101-3.398-1.729-6.92-4.763-8.649s-6.956-1.415-9.548.968c-1.899,1.746.935,4.569,2.828,2.828h0Z"/><path class="f" d="M237.884,54.717c1.166,2.498,1.15,5.629,1.511,8.326.408,3.047,1.187,5.976,2.197,8.877,2.126,6.104,5.573,12.058,10.497,16.34,9.926,8.632,25.251,9.47,36.327,2.571,5.843-3.639,10.756-8.951,14.17-14.896,1.284-2.236-2.171-4.253-3.454-2.019-2.751,4.792-6.508,9.063-11.005,12.301-4.994,3.595-10.989,5.471-17.147,5.247-5.461-.199-11.138-2.048-15.432-5.501-4.676-3.76-8.028-9.241-10.007-14.844-1.021-2.891-1.867-5.84-2.252-8.888-.404-3.203-.566-6.566-1.951-9.532-.457-.979-1.865-1.227-2.736-.718-1.003.587-1.176,1.754-.718,2.736h0Z"/><path class="f" d="M312.905,54.947c2.223-6.731,2.344-14.032,1.317-20.984-1.001-6.774-3.357-14.26-8.794-18.803-1.962-1.64-4.807,1.175-2.828,2.828,4.939,4.128,6.87,10.9,7.765,17.038.911,6.243.673,12.832-1.317,18.857-.809,2.45,3.052,3.5,3.857,1.063h0Z"/><path class="f" d="M236.66,48.982c.121,1.829.294,3.654.53,5.471.072.552.176,1.004.586,1.414.347.347.916.608,1.414.586.517-.023,1.054-.193,1.414-.586.332-.361.652-.903.586-1.414-.236-1.818-.409-3.643-.53-5.471-.035-.533-.199-1.028-.586-1.414-.347-.347-.916-.608-1.414-.586-1.025.046-2.074.882-2,2h0Z"/><path class="f" d="M245.619,15.847c-9.039,8.248-10.39,21.728-8.938,33.193.136,1.071.822,2,2,2,.975,0,2.137-.921,2-2-1.321-10.429-.514-22.809,7.766-30.364,1.906-1.739-.929-4.561-2.828-2.828h0Z"/><path class="f" d="M300.916,11.138c-1.44-1.458-2.776-2.955-4.39-4.236-3.077-2.441-6.577-4.242-10.351-5.342-9.669-2.818-20.888-1.679-30.071,2.288-3.716,1.605-7.331,3.821-10.087,6.823-1.738,1.893,1.083,4.73,2.828,2.828,4.97-5.414,12.77-8.106,19.883-9.023,8.484-1.095,17.663-.163,24.703,5.055,1.649,1.222,3.147,2.907,4.657,4.436,1.812,1.834,4.64-.994,2.828-2.828h0Z"/><path class="f" d="M246.001,50.394c2.571-2.484,5.284-4.835,8.112-7.021,1.453-1.124,2.947-2.2,4.487-3.202.689-.448,1.388-.881,2.101-1.289.378-.216.759-.425,1.145-.625.183-.095.368-.187.554-.278.437-.183.356-.189-.241-.02l-.883-.514c.509.401.258,1.843.301,2.51.073,1.139.311,2.337,1.372,2.972,1.647.984,3.729-.394,5.21-1.147,4.341-2.207,8.566-4.723,13.156-6.396,2.399-.875,1.363-4.742-1.063-3.857-3.349,1.221-6.542,2.831-9.695,4.483-1.388.727-2.767,1.471-4.161,2.186-.504.259-1.01.515-1.523.755-.103.048-.627.344-.375.177-.474.314-.974-.106.317.599.984.537.78.678.751-.057-.014-.364-.011-.728-.028-1.092-.04-.875-.117-1.771-.452-2.587-.831-2.023-2.727-2.401-4.569-1.532-3.038,1.433-5.815,3.456-8.469,5.494-3.093,2.375-6.071,4.902-8.876,7.612-1.855,1.792.975,4.618,2.828,2.828h0Z"/><path class="f" d="M285.533,37.557c2.875,1.615,4.87,4.126,6.549,6.917,2.139,3.557,3.849,7.375,5.422,11.208.41.999,1.329,1.708,2.46,1.397.945-.26,1.81-1.455,1.397-2.46-1.73-4.215-3.56-8.438-5.931-12.339-2.006-3.3-4.474-6.266-7.878-8.177-2.247-1.262-4.266,2.192-2.019,3.454h0Z"/><path class="f" d="M123.136,166.271c6.83.526,13.656,1.115,20.486,1.643,1.078.083,2-.979,2-2,0-1.152-.919-1.916-2-2-6.83-.528-13.655-1.117-20.486-1.643-1.078-.083-2,.979-2,2,0,1.151.919,1.917,2,2h0Z"/><path class="f" d="M117.937,173.775c8.877,1.059,17.564,3.072,26.162,5.487,2.482.697,3.542-3.161,1.063-3.857-8.956-2.515-17.982-4.527-27.225-5.629-1.074-.128-2,1.011-2,2,0,1.188.923,1.871,2,2h0Z"/><path class="f" d="M124.614,166.27c.78-1.745.559-3.546-.673-5.033s-3.183-2.047-5.068-1.996c-3.803.102-7.719,1.447-11.112,3.088-1.676.81-3.278,1.775-4.776,2.882-1.565,1.156-3.089,2.44-3.829,4.296-.745,1.868-.34,3.891,1.038,5.351,1.309,1.387,3.234,1.922,5.089,1.956,4.579.085,9.333-1.427,13.433-3.348.978-.458,1.227-1.865.718-2.736-.586-1.002-1.755-1.177-2.736-.718-3.253,1.523-6.89,2.57-10.488,2.779-1.003.058-2.89.14-3.381-1.033-.494-1.181,1.399-2.512,2.175-3.093,2.745-2.053,5.869-3.597,9.163-4.537,1.566-.447,3.246-.887,4.885-.892.551-.002,1.197.025,1.652.38.088.069.502.535.457.636-.44.985-.286,2.15.718,2.736.854.499,2.294.274,2.736-.718h0Z"/><path class="f" d="M191.855,147.732c.187-.038.373-.075.562-.103-.352.052.315-.026.314-.026.419-.032.841-.041,1.261-.02.348.017.511.03.948.15.059.016.581.225.342.109.054.026.511.332.293.159-.196-.156.078.098.115.13.293.255-.148-.27.057.071.187.311.378.612.544.936.391.761.529,1.122.834,1.929.574,1.514,1.079,3.054,1.601,4.586.733,2.152.362,4.184-.36,6.285-.351,1.021.402,2.187,1.397,2.46,1.098.302,2.108-.372,2.46-1.397.937-2.727,1.304-5.629.36-8.412-.618-1.821-1.209-3.661-1.937-5.442-.704-1.723-1.476-3.662-3.159-4.656-1.973-1.166-4.53-1.055-6.695-.616-1.059.215-1.669,1.47-1.397,2.46.303,1.102,1.398,1.613,2.46,1.397h0Z"/><g id="e"><path class="f" d="M264.772,65.865c-.248.59-.442,1.209-.622,1.822-.333,1.131-.681,2.503.262,3.455.161.162.457.383.69.502.253.13.531.26.813.319.402.083.746.079,1.141.083.51.005,1.055-.227,1.414-.586.347-.347.608-.916.586-1.414-.023-.517-.193-1.054-.586-1.414s-.871-.581-1.414-.586c-.19-.002-.376.021-.565-.004l.532.071c-.096-.016-.187-.042-.278-.078l.478.202c-.135-.059-.255-.135-.373-.223l.405.313s-.009-.008-.013-.013l.313.405c-.006-.009-.011-.017-.015-.027l.202.478c-.008-.022-.012-.043-.016-.066l.071.532c-.01-.091,0-.183.011-.273l-.071.532c.076-.554.253-1.099.422-1.63.143-.448.29-.901.472-1.335.083-.266.095-.532.036-.798-.012-.266-.091-.514-.237-.744-.243-.415-.718-.811-1.195-.919-.512-.117-1.087-.091-1.541.202l-.405.313c-.248.25-.419.544-.514.883h0Z"/><path class="f" d="M252.017,58.306c-.492,1.543-.272,5.118,2.539,5.476,3.725.049,4.018-4.263,2.809-6.316-.99-1.681-3.993-2.43-5.349.84Z"/><path class="f" d="M283.987,58.437c.465,1.631.063,5.353-3.014,5.606-4.058-.108-4.18-4.62-2.771-6.711,1.154-1.712,4.458-2.365,5.784,1.105Z"/><path class="f" d="M263.372,81.578c1.701.577,3.613.671,5.39.496,2.039-.202,4.027-.683,5.84-1.661.922-.497,1.289-1.85.718-2.736-.603-.936-1.75-1.25-2.736-.718-.159.086-.319.169-.483.246-.023.011-.433.203-.141.069.261-.121-.033.011-.086.032-.381.147-.77.274-1.164.383-.404.112-.813.204-1.226.28-.098.018-.196.035-.294.051-.055.009-.39.069-.103.019.286-.049-.047.005-.104.011-.123.014-.246.027-.37.038-.791.071-1.589.081-2.381.019-.114-.009-.228-.021-.343-.032-.275-.026.027-.005.13.021-.167-.042-.347-.055-.517-.088-.362-.072-.718-.167-1.068-.286-.992-.336-2.23.386-2.46,1.397-.252,1.109.335,2.1,1.397,2.46h0Z"/></g></g></g></svg>